<svg width="12" height="15" viewBox="0 0 12 15" fill="none" xmlns="http://www.w3.org/2000/svg">
<path d="M10 5.66671C10 4.60584 9.57857 3.58843 8.82843 2.83828C8.07828 2.08813 7.06086 1.66671 6 1.66671C4.93913 1.66671 3.92172 2.08813 3.17157 2.83828C2.42143 3.58843 2 4.60584 2 5.66671V11H10V5.66671ZM11.3333 11.4447L11.6 11.8C11.6371 11.8496 11.6598 11.9085 11.6653 11.9701C11.6709 12.0318 11.6592 12.0937 11.6315 12.1491C11.6038 12.2045 11.5612 12.251 11.5086 12.2836C11.4559 12.3161 11.3952 12.3334 11.3333 12.3334H0.666666C0.604762 12.3334 0.544081 12.3161 0.491422 12.2836C0.438763 12.251 0.396207 12.2045 0.368523 12.1491C0.340839 12.0937 0.32912 12.0318 0.334679 11.9701C0.340238 11.9085 0.362856 11.8496 0.399999 11.8L0.666666 11.4447V5.66671C0.666666 4.25222 1.22857 2.89567 2.22876 1.89547C3.22896 0.895277 4.58551 0.333374 6 0.333374C7.41449 0.333374 8.77104 0.895277 9.77123 1.89547C10.7714 2.89567 11.3333 4.25222 11.3333 5.66671V11.4447ZM4.33333 13H7.66666C7.66666 13.4421 7.49107 13.866 7.17851 14.1786C6.86595 14.4911 6.44203 14.6667 6 14.6667C5.55797 14.6667 5.13405 14.4911 4.82149 14.1786C4.50893 13.866 4.33333 13.4421 4.33333 13V13Z" fill="white"/>
</svg>
