<svg width="14" height="14" viewBox="0 0 14 14" fill="none" xmlns="http://www.w3.org/2000/svg">
<path d="M7 0.333374C10.68 0.333374 13.6667 3.32004 13.6667 7.00004C13.6667 10.68 10.68 13.6667 7 13.6667C3.32 13.6667 0.333332 10.68 0.333332 7.00004C0.333332 3.32004 3.32 0.333374 7 0.333374ZM7 12.3334C9.94667 12.3334 12.3333 9.94671 12.3333 7.00004C12.3333 4.05337 9.94667 1.66671 7 1.66671C4.05333 1.66671 1.66667 4.05337 1.66667 7.00004C1.66667 9.94671 4.05333 12.3334 7 12.3334ZM9.35733 3.70004L10.3 4.64271L7 7.94271L6.05733 7.00004L9.35733 3.70004V3.70004Z" fill="white"/>
</svg>
